<svg width="360" height="450" viewBox="0 0 360 450" xmlns="http://www.w3.org/2000/svg" font-family="'JetBrains Mono','Cascadia Code',ui-monospace,Consolas,monospace">
  <rect x="0" y="0" width="360" height="450" rx="10" fill="#0e1116"/>
  <text x="20" y="26" fill="#4cc38a" font-size="13" font-weight="bold">▶ execution replay</text>
  <text x="20" y="42" fill="#6e7681" font-size="9">animates in a browser (GitHub shows the first frame)</text>

  <defs>
    <marker id="rf" markerWidth="9" markerHeight="9" refX="7" refY="3" orient="auto"><path d="M0,0 L7,3 L0,6 Z" fill="#6b7785"/></marker>
    <marker id="ra" markerWidth="9" markerHeight="9" refX="7" refY="3" orient="auto"><path d="M0,0 L7,3 L0,6 Z" fill="#e3b341"/></marker>
  </defs>

  <!-- edges (static) -->
  <line x1="160" y1="98"  x2="160" y2="116" stroke="#6b7785" stroke-width="1.6" marker-end="url(#rf)"/>
  <line x1="160" y1="166" x2="160" y2="184" stroke="#6b7785" stroke-width="1.6" marker-end="url(#rf)"/>
  <line x1="160" y1="252" x2="160" y2="286" stroke="#6b7785" stroke-width="1.5" stroke-dasharray="6 3" marker-end="url(#rf)"/>
  <text x="166" y="272" fill="#e3b341" font-size="9">human</text>
  <line x1="160" y1="336" x2="160" y2="370" stroke="#6b7785" stroke-width="1.6" marker-end="url(#rf)"/>
  <!-- redo loop (left, amber) gate -> plan -->
  <polyline points="80,230 40,230 40,138 80,138" fill="none" stroke="#e3b341" stroke-width="1.8" stroke-dasharray="6 3" marker-end="url(#ra)"/>
  <text x="14" y="188" fill="#e3b341" font-size="9">↺ redo</text>
  <!-- auto (right, dashed) gate -> synthesize -->
  <polyline points="240,230 308,230 308,392 240,392" fill="none" stroke="#6b7785" stroke-width="1.5" stroke-dasharray="6 3" marker-end="url(#rf)"/>
  <text x="280" y="222" fill="#e3b341" font-size="9">auto</text>

  <!-- nodes -->
  <g font-size="11">
    <rect x="80" y="54"  width="160" height="44" rx="8" fill="#161b22" stroke="#283039"/><text x="92" y="80" fill="#eaf0f7">ingest</text>
    <rect x="80" y="122" width="160" height="44" rx="8" fill="#161b22" stroke="#b69bff"/><text x="92" y="148" fill="#b69bff">⚡ plan</text>
    <rect x="80" y="208" width="160" height="44" rx="8" fill="#161b22" stroke="#283039"/><text x="92" y="234" fill="#eaf0f7">gate</text>
    <rect x="80" y="290" width="160" height="44" rx="8" fill="#161b22" stroke="#b69bff"/><text x="92" y="316" fill="#b69bff">⚡ review</text>
    <rect x="80" y="370" width="160" height="44" rx="8" fill="#161b22" stroke="#b69bff"/><text x="92" y="396" fill="#b69bff">⚡ synthesize</text>
  </g>

  <!-- active-node glow overlays: pulse in execution order (ingest, plan, gate, plan[redo], gate, review, synthesize) over a 9s loop -->
  <g fill="rgba(76,195,138,0.16)" stroke="#4cc38a" stroke-width="2">
    <rect x="80" y="54"  width="160" height="44" rx="8" opacity="0">
      <animate attributeName="opacity" dur="9s" repeatCount="indefinite" calcMode="linear"
        keyTimes="0;0.111;0.222;0.333;0.444;0.556;0.667;0.778;0.889;1"
        values="0;1;0;0;0;0;0;0;0;0"/>
    </rect>
    <rect x="80" y="122" width="160" height="44" rx="8" opacity="0">
      <animate attributeName="opacity" dur="9s" repeatCount="indefinite" calcMode="linear"
        keyTimes="0;0.111;0.222;0.333;0.444;0.556;0.667;0.778;0.889;1"
        values="0;0;1;0;1;0;0;0;0;0"/>
    </rect>
    <rect x="80" y="208" width="160" height="44" rx="8" opacity="0">
      <animate attributeName="opacity" dur="9s" repeatCount="indefinite" calcMode="linear"
        keyTimes="0;0.111;0.222;0.333;0.444;0.556;0.667;0.778;0.889;1"
        values="0;0;0;1;0;1;0;0;0;0"/>
    </rect>
    <rect x="80" y="290" width="160" height="44" rx="8" opacity="0">
      <animate attributeName="opacity" dur="9s" repeatCount="indefinite" calcMode="linear"
        keyTimes="0;0.111;0.222;0.333;0.444;0.556;0.667;0.778;0.889;1"
        values="0;0;0;0;0;0;1;0;0;0"/>
    </rect>
    <rect x="80" y="370" width="160" height="44" rx="8" opacity="0">
      <animate attributeName="opacity" dur="9s" repeatCount="indefinite" calcMode="linear"
        keyTimes="0;0.111;0.222;0.333;0.444;0.556;0.667;0.778;0.889;1"
        values="0;0;0;0;0;0;0;1;0;0"/>
    </rect>
  </g>
</svg>
